<svg xmlns="http://www.w3.org/2000/svg" viewBox="0 0 303.56 333.74" style="fill:#632E0A;"><g id="圖層_2" data-name="圖層 2"><g id="圖層_1-2" data-name="圖層 1"><path d="M167.26,28.43q0,8.3-9,8.29-5.61,0-14.27-9A98.83,98.83,0,0,1,132.12,12a12.54,12.54,0,0,1-2.32-6.47q0-5.49,6-5.49a12.42,12.42,0,0,1,4.15.85,49,49,0,0,1,18.3,11.23Q167.26,20.38,167.26,28.43Z"/><path d="M143.17,70.34q8.07,0,10.61,6.92,4.16.93,9.46,2.54A157.29,157.29,0,0,0,202,85.34h15.22q8.53.22,8.3,5.3,0,5.08-9.46,7.61a138,138,0,0,1-22.14,1.62,184.35,184.35,0,0,1-41-4.62,59.29,59.29,0,0,0-1.39,7.85,485.2,485.2,0,0,0,49.13,2.53q22.14,0,33.22-1.61a50.3,50.3,0,0,1,6.45-1.39q13.6,0,13.61,6.46,0,3.47-4.15,7.38-19.6,18-30.21,31.84-4.16,6.23-8.08,6.22c-2.3,0-3.46-1.3-3.46-3.92q0-5.07,6.23-26.52a171.5,171.5,0,0,1-24.68,1.84q-18.92,0-36-.92a21.24,21.24,0,0,1-1.39,2.07c-.61,1.39-1.23,2.7-1.84,3.93q9.69.23,21.22.23,12.68-.23,23.3-.93,12.91,0,13.14,6.69,0,5.31-9.69,8.08-10.38,3-36,3-8.07,0-15-.23,1.6,5.78,14.53,5.77a139.52,139.52,0,0,0,27-2.77,48.16,48.16,0,0,1,6-1.15c2,0,3,.62,3,1.84q0,2.78-10.14,6.46-18.47,6.69-34.37,6.69-14.31,0-23.07-6.69a19.67,19.67,0,0,1-6.92-11.53q-6-.69-10.84-1.61c-2.46-.46-4.69-.93-6.69-1.39q-1.38,10.38-3.69,22.14Q92,221,74,248.87q-12.69,20.76-21.91,20.76-4.16,0-4.84-6.23c0-5.53,1-8.3,3-8.3a4.54,4.54,0,0,1,2.08.46,3.49,3.49,0,0,0,1.38.46q3.93,0,9.69-12.91Q72.83,223,78.12,191.9q6.47-30.21,7.85-74.27v-.93q-23.07-5.07-23.07-15a9.2,9.2,0,0,1,3.46-7.15,10.34,10.34,0,0,1,7.61-3q8.07,0,27.68,4.39,12,2.3,23.53,3.92a84.77,84.77,0,0,1,3-13.84,17.88,17.88,0,0,1,3.23-6.46Q135.09,71,143.17,70.34ZM163.47,230q18,0,41.05,2.3,27.22,2.09,27.22,17.07,0,3.69-6,11.53c2.46-.15,4.77-.31,6.92-.46q15.45,0,15.92,7.62,0,6.92-14.53,10.14-15.69,3.69-53.75,3.7-52.58,0-77.5-3.93-29.74-4.38-29.75-12.68T86,256.94q3.23,0,9.68.7a24.54,24.54,0,0,1-1.38-5.31q0-6.45,5.77-11.3,6.92-5.07,22.14-7.61Q138.32,230,163.47,230Zm3.92-61.59q18.21,0,33.44,1.39,27.45,2.53,27.45,17.07,0,4.38-9.92,17.29a54.56,54.56,0,0,1-3.92,4.39q6.45,1.16,6.46,6.91,0,6-13.61,9Q194.6,227.2,175,227.19a286.47,286.47,0,0,1-37.14-2.08Q135.32,230,127.71,230q-8.07,0-19.14-12.92Q99.11,205.75,99.11,197a17.58,17.58,0,0,1,6.23-14.07q8.53-7.6,25.83-11.3A221.38,221.38,0,0,1,167.39,168.37Zm-59.74-40.59q4.38.47,13.15,1.61c1.07.16,2.22.31,3.46.46.61-2.3,1.38-4.69,2.3-7.15q-9.47-1.15-18.45-2.3Q107.87,124.09,107.65,127.78Zm18,132.85q8.76.47,19.84,1.16-1.86-6-4.16-13.84c-1.84.15-3.77.38-5.76.69q-11.78,1.38-11.77,5.54a12.5,12.5,0,0,0,.93,3.69A14.76,14.76,0,0,1,125.64,260.63ZM135.33,208l3.69.47q8.07,1.16,19.14,1.61,0-3.23.23-6.23a218.76,218.76,0,0,1-24.91-3.23Q134.17,203.9,135.33,208Zm24.45-16.83a26.08,26.08,0,0,1,1.15-4.15,22.41,22.41,0,0,1,1.15-3.47A89.91,89.91,0,0,0,141.79,188a1,1,0,0,1-.7.23A154.11,154.11,0,0,0,159.78,191.21Zm4.38,71q6.92.22,14.3.23A91.07,91.07,0,0,1,184,247q-11.3-.22-21.45-.23H160.7Q163.23,256.48,164.16,262.25Zm13.61-51.9q9.69-.22,19.14-1.38c0-.93,1.54-3.84,4.62-8.77q5.52-9.22,5.53-10.84,0-4.38-7.61-5.07-7.15-.69-17.53-.93V185a25.46,25.46,0,0,1-.69,4.84l-.93,2.31h11.77q7.83.47,7.61,4.84c0,2.47-2.77,4.46-8.31,6a108.43,108.43,0,0,1-13.14,1.15Q178,207.12,177.77,210.35Zm11.07,52.13h2.53q7.84-.23,15-.46c.46-.92,1-1.93,1.61-3q3.47-6.46,3.46-7.84,0-2.31-9.45-3.23l-7.38-.46Q191.59,254.63,188.84,262.48Z"/><path d="M257.76,295.37c-.4,0-1.33.63-2.78,1.88a4,4,0,0,1-.72.5c-.15.23-.27.43-.38.62a13,13,0,0,0,2.19,1.72,25.6,25.6,0,0,0,2-4.47C258.1,295.46,258,295.37,257.76,295.37Z"/><path d="M278.19,253.51q-6.07,0-14,4.8a212.32,212.32,0,0,0-34.11,24.53q-19.57,18-19.57,29.59,0,18.7,18,18.71,17.46,0,35.43-18.71a100.94,100.94,0,0,0,24.33-37.93,24.4,24.4,0,0,0,1.85-8.6Q290.09,253.51,278.19,253.51Zm-36.32,46.3a15.74,15.74,0,0,1-4.28-.41,1.58,1.58,0,0,1-1-1.53c0-1.06.72-1.61,2.15-1.65l1.69.15a36.2,36.2,0,0,1-1.09-8.27v-.16l-.63-.21c-1.41-.59-2.12-1.34-2.12-2.25s.59-1.46,1.78-1.5a14.86,14.86,0,0,1,2.46.9l.25.07a10.82,10.82,0,0,1,.47-2.06,2,2,0,0,1,1.31-1.16c1.28,0,1.93,1.35,2,4.06a6.15,6.15,0,0,0,1,.09h2a2.59,2.59,0,0,1,1.31.31,3.87,3.87,0,0,1-.47-2,5.91,5.91,0,0,1,1.78-3.69,19.14,19.14,0,0,1,3.9-3.27,3.83,3.83,0,0,1,1.72-.91c1.5,0,2.25.64,2.25,1.91,0,.52-.51,1.13-1.53,1.84a18.45,18.45,0,0,0-3.4,3.09,3.7,3.7,0,0,0-.84,1.43c0,.42.37.63,1.12.63a12.17,12.17,0,0,0,5.43-1.72c-.1-.14-.21-.3-.31-.47a3,3,0,0,1-.59-1.59c.14-1,.64-1.61,1.49-1.72.46,0,1,.35,1.5,1a16.64,16.64,0,0,0,2.22,2.47,2.23,2.23,0,0,1,.9,1.88,1.31,1.31,0,0,1-1.5,1.24,3.06,3.06,0,0,1-1.74-.9,6.43,6.43,0,0,1-.72-.57.2.2,0,0,1-.1.07,19.19,19.19,0,0,1-5.39,2.68q-2.41,4-4,6.78c-.5.79-1,1.18-1.53,1.18a1,1,0,0,1-1.12-1.12,7.69,7.69,0,0,1,.46-1.75l2-5.28a3.2,3.2,0,0,1-1.06-.59,2.32,2.32,0,0,0-.22-.25.78.78,0,0,1,0,.22c0,.62-.62,1.11-1.85,1.44a23.5,23.5,0,0,1-4.18.34c-.36,0-.7,0-1,0,.25,3.23.52,5.67.81,7.34l.06.5.85,0c.08-.32.17-.66.28-1a22.9,22.9,0,0,1,2.18-5.37c.52-.74,1-1.12,1.5-1.12a.64.64,0,0,1,.72.72,1.46,1.46,0,0,1-.41.81,23.84,23.84,0,0,0-3,5.93l.53-.06a9,9,0,0,1,1.37-.19c1.27,0,1.9.43,1.9,1.28s-.56,1.27-1.81,1.69A19.51,19.51,0,0,1,241.87,299.81Zm22.69,3.4a3.45,3.45,0,0,1-1.81.53,16.64,16.64,0,0,1-5.05-.81c-.4-.12-.79-.26-1.16-.41l-.59.66c-1,.85-1.62,1.28-2,1.28a.3.3,0,0,1-.34-.34q0-.75.21-.75a.39.39,0,0,0,.25.12c.15,0,.48-.51,1-1.53a17.37,17.37,0,0,1-2.65-1.59c-.36.5-.74,1-1.16,1.53s-1,.94-1.31.94c-1,0-1.5-.42-1.5-1.25a6.2,6.2,0,0,1,.88-2.62,48.4,48.4,0,0,1,2.81-5.22q1.22-1.65,1.68-1.65c1.15,0,1.77.5,1.88,1.5a4.18,4.18,0,0,1,.56-.28,6.74,6.74,0,0,1,1.81-.6,3.43,3.43,0,0,1-.72-2.21,8.78,8.78,0,0,1,.72-3.41,1.53,1.53,0,0,1,1.37-1c1.19,0,1.78.55,1.78,1.63a4.29,4.29,0,0,1-.22,1.15,10.48,10.48,0,0,0-.31,2.34c0,.73.51,1.1,1.53,1.1a3.92,3.92,0,0,0,1.53-.35,1.36,1.36,0,0,1,.35-.12c.24,0,.37.07.37.22s-.26.52-.78.87a5.23,5.23,0,0,1-1.94.81,1.45,1.45,0,0,1,.07.47,5.62,5.62,0,0,1-1.16,3.12,29.49,29.49,0,0,1-2.78,3.72,14.38,14.38,0,0,0,1.75.59,10.05,10.05,0,0,0,3.21.56,1.13,1.13,0,0,0,1-.5,1.05,1.05,0,0,1,.75-.28c.36,0,.53.22.53.66A1.43,1.43,0,0,1,264.56,303.21Z"/><path d="M303.44,173c-.38-4.79-.89-9.59-1.34-14.42-.75-4.77-1.71-9.53-2.57-14.35-1.14-4.73-2.64-9.39-4-14.13a141.5,141.5,0,0,0-29.74-51.29c-3.55-3.54-7.11-7.12-10.75-10.62-3.91-3.17-7.79-6.44-11.8-9.55-4.22-2.79-8.43-5.66-12.77-8.3-4.51-2.34-9-4.84-13.59-7-4.75-1.84-9.46-3.86-14.3-5.52-4.92-1.37-9.83-2.92-14.82-4.09-5-.84-10.1-1.79-15.19-2.51l-15.37-1-15.41.64c-5.11.59-10.2,1.4-15.3,2.13-5,1-10,2.47-15,3.73C106.6,38.23,101.8,40.15,97,41.9A157.61,157.61,0,0,0,46,76.22a159.48,159.48,0,0,0-34.28,50.93C10,132,8.07,136.79,6.51,141.7c-1.26,5-2.69,10-3.76,15C2,161.8,1.21,166.9.63,172L0,187.42l1,15.37c.72,5.08,1.67,10.13,2.52,15.19,1.16,5,2.71,9.89,4.07,14.82,1.66,4.83,3.68,9.55,5.52,14.3,2.17,4.62,4.67,9.08,7,13.59,2.64,4.35,5.51,8.56,8.29,12.79,3.1,4,6.37,7.89,9.55,11.8,3.5,3.64,7.08,7.2,10.61,10.76,3.89,3.21,7.75,6.41,11.66,9.52,4.18,2.78,8.34,5.55,12.56,8.17,4.43,2.3,8.82,4.62,13.29,6.72,4.64,1.78,9.17,3.71,13.81,5.31,4.74,1.32,9.4,2.82,14.14,3.95,4.81.86,9.58,1.81,14.35,2.55,4.83.45,9.63,1,14.41,1.35l14.4.13,14.3-1.14c4.72-.74,9.41-1.6,14.11-2.39,4.62-1.13,9.21-2.41,13.82-3.6,4.28-1.38,8.46-3.07,12.69-4.61-.22-.53-.42-1.09-.6-1.66-4.21,1.48-8.38,3.11-12.65,4.44-4.57,1.08-9.08,2.42-13.69,3.28-4.66.58-9.29,1.32-14,1.76l-14,.29-13.93-1.3c-4.59-.79-9.12-1.89-13.64-2.8-4.46-1.25-8.8-2.92-13.16-4.33-4.27-1.72-8.4-3.76-12.56-5.6a150.72,150.72,0,0,1-42.45-32.92,140.48,140.48,0,0,1-36-95.74l.81-12.92c.59-4.27,1.38-8.5,2-12.75.92-4.2,2.11-8.33,3.12-12.51,1.29-4.1,2.92-8.08,4.31-12.15A130.52,130.52,0,0,1,64.06,94.25a132.47,132.47,0,0,1,42.86-28.32c4.06-1.41,8-3,12.14-4.32,4.18-1,8.32-2.18,12.5-3.16,4.25-.64,8.49-1.43,12.75-2l12.92-.79a140.69,140.69,0,0,1,95.78,36,149.78,149.78,0,0,1,32.9,42.48c1.83,4.16,3.87,8.3,5.58,12.57,1.41,4.35,3.07,8.69,4.31,13.16.92,4.52,2,9.05,2.81,13.64l1.31,13.93-.26,14c-.47,4.65-1.18,9.29-1.76,14-.94,4.59-2.22,9.12-3.32,13.68-1.4,4.48-3.08,8.88-4.69,13.29-1.74,4.15-3.69,8.22-5.81,12.19a9.71,9.71,0,0,1,1.71.94c2.12-4.05,4.06-8.2,5.78-12.44,1.56-4.49,3.42-8.88,4.87-13.41,1.17-4.61,2.51-9.19,3.56-13.83.79-4.69,1.68-9.39,2.4-14.1l1.16-14.3Z"/></g></g></svg>