<svg xmlns="http://www.w3.org/2000/svg" viewBox="0 0 37.17 35.22"><defs><style>.cls-1{fill:#141414;}</style></defs><title>supportPage_message_icon</title><g id="圖層_1" data-name="圖層 1"><path class="cls-1" d="M12.93,35.22a1.18,1.18,0,0,1-.48-.1,1.16,1.16,0,0,1-.68-1.06V27.68H1.16A1.16,1.16,0,0,1,0,26.52V1.16A1.16,1.16,0,0,1,1.16,0H36a1.16,1.16,0,0,1,1.17,1.16V26.52A1.16,1.16,0,0,1,36,27.68H21.84L13.7,34.93A1.17,1.17,0,0,1,12.93,35.22ZM2.32,25.36H12.93a1.16,1.16,0,0,1,1.16,1.16v4.95l6.54-5.81a1.16,1.16,0,0,1,.77-.3H34.84v-23H2.32Z"/><circle class="cls-1" cx="18.47" cy="14.22" r="1.64"/><circle class="cls-1" cx="10.13" cy="14.22" r="1.64"/><circle class="cls-1" cx="26.8" cy="14.22" r="1.64"/></g></svg>