<svg xmlns="http://www.w3.org/2000/svg" viewBox="0 0 36.33 38.57"><defs><style>.cls-1{fill:#141414;}</style></defs><title>supportPage_robot_icon</title><g id="圖層_1" data-name="圖層 1"><rect class="cls-1" x="13.05" y="18.54" width="10.22" height="1.67" rx="0.09"/><circle class="cls-1" cx="13.89" cy="12.96" r="1.55"/><path class="cls-1" d="M22.44,11.41A1.55,1.55,0,1,0,24,13,1.54,1.54,0,0,0,22.44,11.41Z"/><path class="cls-1" d="M29.57,10A.59.59,0,0,1,29,9.39V6.54a2.26,2.26,0,0,0-2.26-2.26H22.44a.6.6,0,0,1-.59-.6,3.69,3.69,0,0,0-7.37,0,.6.6,0,0,1-.59.6H9.61A2.26,2.26,0,0,0,7.35,6.54V9.39a.59.59,0,0,1-.59.59,3.69,3.69,0,1,0,0,7.37.6.6,0,0,1,.59.6v5.7a2.26,2.26,0,0,0,2.26,2.26H26.72A2.26,2.26,0,0,0,29,23.65V18a.6.6,0,0,1,.59-.6,3.69,3.69,0,1,0,0-7.37ZM27.31,23.65a.58.58,0,0,1-.59.59H9.61A.58.58,0,0,1,9,23.65V6.54a.59.59,0,0,1,.59-.6H26.72a.59.59,0,0,1,.59.6Z"/><path class="cls-1" d="M33.08,38.57H3.25A3.26,3.26,0,0,1,0,35.31a7.46,7.46,0,0,1,7.45-7.45H28.88a7.46,7.46,0,0,1,7.45,7.45A3.26,3.26,0,0,1,33.08,38.57ZM7.45,29.72a5.6,5.6,0,0,0-5.59,5.59,1.4,1.4,0,0,0,1.39,1.4H33.08a1.4,1.4,0,0,0,1.39-1.4,5.6,5.6,0,0,0-5.59-5.59Z"/></g></svg>