<svg xmlns="http://www.w3.org/2000/svg" viewBox="0 0 34.84 39.85"><defs><style>.cls-1{fill:#141414;}</style></defs><title>supportPage_people_icon</title><g id="圖層_1" data-name="圖層 1"><path class="cls-1" d="M17.48,0c-7.27,0-15,5.36-14.66,15.86a1,1,0,0,0,1,1,1,1,0,0,0,1-1c0-10.39,7.4-13.81,12.61-13.81,6.45,0,12.65,4.52,12.5,13.77a6.15,6.15,0,0,1-1.85,4.74,8.47,8.47,0,0,1-4.22,1.89,12.68,12.68,0,0,1-2.07.19,2.23,2.23,0,0,1-.43,0h0a3.16,3.16,0,0,0,0-.32v-.11a2.48,2.48,0,0,0-2.47-2.48H16.06a2.48,2.48,0,0,0-2.47,2.48v.11a2.47,2.47,0,0,0,1.17,2.09,2.42,2.42,0,0,0,1.3.39h2.88l.25,0,2.82,0h.41a10.76,10.76,0,0,0,7.07-2.62A8.22,8.22,0,0,0,32,15.82C32.25,4.42,24.7,0,17.48,0Z"/><path class="cls-1" d="M11.54,22.3a4.63,4.63,0,0,1,4.64-4.63h2.76a4.52,4.52,0,0,1,4.16,2.76.12.12,0,0,0,.11.07c2.49,0,4.42-1.85,4.33-6.06a9.84,9.84,0,0,0-6.3-9.11,10.08,10.08,0,0,0-9.66,17.52,4.91,4.91,0,0,1,0-.55Z"/><path class="cls-1" d="M23.06,27.37a15,15,0,0,1-5.64,1.33,15,15,0,0,1-5.64-1.33C2.32,26.61,0,34.45,0,37.12s2,2.73,2,2.73H32.81s2-.06,2-2.73S32.52,26.61,23.06,27.37Z"/></g></svg>